{"glyphs":{"0":{"ha":616,"x_min":21,"x_max":593,"o":"m 593 545 q 523 208 593 389 q 307 -15 436 -15 q 90 190 176 -15 q 21 509 21 354 q 96 834 21 662 q 318 1044 188 1044 q 400 1003 345 1044 q 593 545 593 861 m 318 975 q 203 867 250 975 q 162 699 162 779 l 162 307 q 194 154 162 234 q 294 56 234 56 q 440 257 398 56 q 463 542 463 374 q 443 791 463 684 q 318 975 407 975 z "},"1":{"ha":250,"x_min":10,"x_max":227,"o":"m 227 1023 q 160 541 160 752 l 160 267 q 199 -20 160 124 l 36 -20 q 82 237 71 103 q 91 528 91 339 q 10 881 91 785 q 227 1023 123 964 z "},"2":{"ha":640,"x_min":45,"x_max":604,"o":"m 549 168 q 597 -6 564 110 l 45 -6 q 234 212 84 47 q 409 440 355 346 q 485 718 485 574 q 447 881 485 817 q 307 956 400 956 q 203 913 241 956 q 164 802 164 870 q 225 715 164 735 q 338 707 252 707 q 235 575 262 575 q 123 646 169 575 q 82 778 82 708 q 167 959 82 885 q 356 1029 248 1029 q 427 1006 376 1029 q 604 718 604 922 q 536 498 604 618 q 384 289 486 410 q 229 108 307 199 q 358 67 302 67 q 549 168 448 67 z "},"3":{"ha":632,"x_min":35,"x_max":604,"o":"m 604 300 q 519 83 604 176 q 309 -9 433 -9 q 124 64 208 -9 q 35 240 35 140 q 90 381 35 321 q 225 442 145 442 q 347 403 269 442 q 278 295 331 352 q 212 334 244 334 q 135 299 164 334 q 105 215 105 264 q 162 100 105 150 q 284 49 219 49 q 432 150 378 49 q 475 336 475 233 q 409 528 475 459 q 219 597 343 597 q 367 688 293 642 q 440 836 440 747 q 296 978 440 978 q 207 950 245 978 q 164 870 164 920 q 270 809 164 817 q 177 715 207 715 q 118 767 145 715 q 94 846 94 811 q 164 991 94 938 q 321 1038 227 1038 q 481 973 418 1038 q 545 811 545 909 q 517 694 545 737 q 442 603 480 649 q 560 470 535 513 q 604 300 604 400 z "},"4":{"ha":630,"x_min":2,"x_max":589,"o":"m 589 267 q 481 289 530 272 q 480 197 478 252 q 484 105 484 124 q 466 49 484 86 q 318 9 427 23 q 388 294 391 140 l 2 294 q 120 610 32 378 q 233 927 197 808 q 265 1123 258 1007 q 299 1233 270 1204 q 478 1309 338 1273 l 138 414 q 184 380 161 387 q 242 376 197 376 q 356 384 336 376 q 399 479 399 403 q 350 869 399 770 q 520 942 375 883 q 490 801 515 909 q 470 661 470 713 l 470 388 l 538 388 q 589 387 563 389 l 589 267 z "},"5":{"ha":648,"x_min":38,"x_max":608,"o":"m 608 347 q 529 101 608 200 q 300 -8 443 -8 q 108 62 178 -8 q 38 253 38 132 q 95 386 38 330 q 228 442 152 442 q 366 373 278 442 q 321 325 343 350 q 275 288 284 288 q 248 306 273 288 q 193 323 223 323 q 124 291 152 323 q 96 216 96 258 q 155 102 96 154 q 275 50 213 50 q 435 157 382 50 q 478 360 478 242 q 241 645 478 645 q 147 611 185 645 l 91 610 q 149 806 137 708 q 163 1007 156 852 l 164 1027 l 542 1027 q 515 953 515 968 q 549 882 515 925 l 487 883 q 416 918 451 900 q 334 932 387 932 q 248 909 266 932 q 227 824 237 895 q 215 775 221 807 q 215 715 215 775 q 497 619 392 712 q 608 347 608 521 z "},"6":{"ha":657,"x_min":39,"x_max":609,"o":"m 609 363 q 534 115 609 221 q 313 -5 449 -5 q 101 141 177 -5 q 39 410 39 259 q 152 780 39 593 q 427 1051 265 966 l 442 1034 q 285 833 363 933 q 190 657 216 742 q 159 398 159 558 q 183 176 159 266 q 313 29 220 29 q 456 171 406 29 q 492 388 492 275 q 462 549 492 473 q 347 648 420 648 q 259 584 303 648 q 194 485 227 535 l 194 568 q 360 708 249 708 q 547 588 475 708 q 609 363 609 485 z "},"7":{"ha":602,"x_min":27,"x_max":558,"o":"m 558 1008 q 509 900 544 968 q 456 795 468 822 q 328 392 381 623 q 284 120 296 260 q 244 -58 271 -21 q 83 -146 213 -102 q 243 361 163 108 q 363 872 363 758 q 322 912 363 912 q 175 904 218 912 q 47 837 98 889 q 27 941 27 909 q 46 1014 27 976 l 163 1014 q 558 1008 362 1014 z "},"8":{"ha":594,"x_min":3,"x_max":575,"o":"m 575 273 q 494 62 575 149 q 289 -25 413 -25 q 81 67 162 -25 q 3 285 3 156 q 59 455 3 376 q 188 583 98 513 q 75 809 75 698 q 148 968 75 900 q 314 1036 221 1036 q 469 959 398 1036 q 541 797 541 882 q 506 684 541 734 q 442 622 486 656 q 407 582 407 594 q 450 530 407 568 q 531 439 506 480 q 575 273 575 367 m 433 809 q 399 916 433 872 q 302 963 362 963 q 217 928 252 963 q 182 844 182 894 q 340 641 182 734 q 406 711 375 645 q 433 809 433 767 m 469 236 q 396 404 469 318 q 251 523 336 477 q 154 428 193 520 q 123 285 123 354 q 163 118 123 188 q 302 32 212 32 q 418 104 365 32 q 469 236 469 171 z "},"9":{"ha":625,"x_min":22,"x_max":594,"o":"m 594 582 q 170 -82 594 189 l 155 -67 q 226 5 175 -37 q 303 73 288 56 q 473 619 473 259 q 443 843 473 742 q 308 988 399 988 q 174 872 220 988 q 139 678 139 784 q 172 484 139 579 q 295 356 216 356 q 378 414 347 356 q 416 515 381 419 l 438 510 l 439 495 q 398 358 440 412 q 271 296 353 296 q 93 422 171 296 q 22 641 22 536 q 97 897 22 775 q 308 1036 183 1036 q 528 868 446 1036 q 594 582 594 733 z "}," ":{"ha":579,"x_min":0,"x_max":0,"o":""},"!":{"ha":240,"x_min":50,"x_max":182,"o":"m 181 1035 q 179 975 182 1014 q 147 759 166 907 q 144 506 145 633 q 108 260 139 348 l 86 264 l 86 991 l 128 1034 l 181 1035 m 112 -14 q 58 20 63 13 q 51 96 51 31 q 50 193 51 182 q 125 177 106 188 q 156 115 156 161 q 154 42 156 49 q 112 -14 150 30 z "},"\"":{"ha":385,"x_min":6,"x_max":330,"o":"m 330 836 q 193 1050 193 884 q 206 1131 193 1109 q 260 1184 214 1146 q 294 1150 277 1168 q 313 1109 313 1130 q 294 1037 313 1075 q 275 978 275 999 q 297 906 275 950 q 330 836 326 847 m 142 836 q 6 1050 6 884 q 19 1131 6 1109 q 73 1184 27 1146 q 106 1150 89 1168 q 125 1109 125 1130 q 106 1037 125 1075 q 88 978 88 999 q 110 906 88 950 q 142 836 139 847 z "},"&":{"ha":719,"x_min":21,"x_max":691,"o":"m 691 -17 q 560 -103 648 -46 q 426 211 530 1 q 249 463 303 454 q 152 361 189 426 q 116 225 116 296 q 157 117 116 166 q 257 68 199 68 q 361 110 294 68 q 446 8 399 52 q 257 -36 368 -36 q 87 36 153 -36 q 21 213 21 108 q 83 397 21 314 q 220 536 113 438 q 152 623 186 580 q 73 700 117 667 q 184 794 128 748 q 317 843 251 843 q 428 807 387 843 q 472 700 472 767 q 417 591 472 649 q 319 507 368 550 q 495 237 407 373 q 691 -17 598 83 m 365 700 q 317 772 365 772 q 268 751 289 772 q 247 700 247 729 q 291 586 247 641 q 365 700 365 641 z "},"'":{"ha":221,"x_min":31,"x_max":167,"o":"m 167 1019 q 31 804 167 853 q 64 875 35 816 q 84 947 84 919 q 66 1006 84 968 q 47 1078 47 1044 q 66 1119 47 1098 q 101 1153 83 1137 q 155 1100 146 1115 q 167 1019 167 1078 z "},"(":{"ha":374,"x_min":78,"x_max":347,"o":"m 347 -167 l 287 -236 q 130 64 184 -109 q 78 399 78 227 q 128 744 78 574 q 286 1053 184 929 l 337 993 q 221 731 260 933 q 191 436 191 582 q 222 113 191 289 q 347 -167 267 -134 z "},")":{"ha":374,"x_min":28,"x_max":296,"o":"m 296 418 q 247 73 296 242 q 89 -235 191 -113 l 37 -177 q 153 84 113 -116 q 183 380 183 233 q 152 703 183 527 q 28 980 108 951 l 89 1053 q 296 418 296 787 z "},"+":{"ha":663,"x_min":63,"x_max":598,"o":"m 598 301 l 373 301 l 373 -12 l 286 -12 l 286 301 l 63 301 l 63 407 l 286 407 l 286 719 l 373 719 l 373 407 l 598 407 l 598 301 z "},",":{"ha":271,"x_min":45,"x_max":193,"o":"m 193 69 q 149 -93 193 0 q 45 -216 102 -193 q 78 -134 49 -204 q 98 -50 98 -83 q 80 27 98 -23 q 61 106 61 78 q 80 164 61 141 q 128 205 90 177 q 179 146 174 157 q 193 69 193 122 z "},"-":{"ha":286,"x_min":-15,"x_max":301,"o":"m 301 485 l 244 280 q 198 306 222 306 q 159 308 188 306 q 115 310 131 310 q 17 265 38 310 l -15 265 l 42 468 q 84 447 64 447 q 125 444 95 447 q 171 442 155 442 q 269 485 248 442 l 301 485 z "},".":{"ha":229,"x_min":30,"x_max":159,"o":"m 159 66 q 102 -16 115 -16 q 46 22 66 -16 q 30 93 30 53 q 50 157 30 116 q 89 198 69 198 q 159 66 144 198 z "},"/":{"ha":463,"x_min":-22,"x_max":471,"o":"m 471 1038 q 422 994 438 1036 q 405 925 413 959 l 128 -25 q 111 -104 111 -86 q 132 -134 111 -120 l 132 -162 l -22 -162 l -22 -133 q 20 -93 6 -123 q 38 -35 24 -82 l 321 943 q 338 1015 338 1003 q 314 1038 338 1036 l 314 1073 l 471 1073 l 471 1038 z "},":":{"ha":219,"x_min":5,"x_max":134,"o":"m 134 532 q 113 475 134 501 q 63 449 93 449 q 5 554 5 449 q 20 613 5 583 q 63 650 37 650 q 113 604 90 650 q 134 532 134 564 m 134 80 q 118 27 134 53 q 75 -3 100 -3 q 16 78 22 -3 q 14 200 15 139 q 108 170 83 191 q 134 80 134 146 z "},";":{"ha":250,"x_min":35,"x_max":170,"o":"m 108 436 q 64 473 82 436 q 49 532 49 503 q 93 641 49 567 q 142 618 139 620 q 170 576 170 601 q 167 487 170 506 q 108 436 154 436 m 169 58 q 135 -103 169 -24 q 35 -228 98 -191 q 64 -133 38 -200 q 86 -39 86 -73 q 67 10 86 -36 q 49 93 49 56 q 57 157 49 139 q 108 188 68 188 q 157 135 141 188 q 169 58 169 101 z "},"<":{"ha":663,"x_min":63,"x_max":598,"o":"m 598 -30 l 63 310 l 63 399 l 598 741 l 598 625 l 167 352 l 598 82 l 598 -30 z "},">":{"ha":663,"x_min":63,"x_max":598,"o":"m 598 310 l 63 -30 l 63 82 l 497 352 l 63 625 l 63 741 l 598 399 l 598 310 z "},"?":{"ha":458,"x_min":25,"x_max":431,"o":"m 431 813 q 385 650 431 722 q 291 539 359 608 q 205 439 225 476 q 178 340 185 403 q 160 241 170 269 q 120 334 120 300 q 134 366 120 353 q 185 571 135 480 q 277 705 231 638 q 325 859 325 780 q 206 988 325 988 q 120 947 164 988 q 51 873 86 910 q 25 998 25 975 q 42 1049 25 1013 l 267 1049 q 391 958 362 995 q 431 813 431 909 m 229 86 q 213 28 229 58 q 169 -8 194 -8 q 125 22 142 -8 q 110 75 110 46 q 155 183 110 118 q 215 152 204 166 q 229 86 229 134 z "},"A":{"ha":774,"x_min":24,"x_max":1118,"o":"m 1118 -228 q 964 -279 1051 -279 q 816 -231 899 -279 q 670 -132 773 -207 q 530 -42 579 -65 q 549 24 539 -9 q 559 88 563 72 l 480 517 q 287 373 375 512 q 207 135 207 247 q 212 69 207 113 q 216 3 216 25 q 134 -9 191 -9 q 45 3 88 -9 q 171 490 110 153 q 228 992 230 816 l 227 1088 l 198 1088 q 140 1057 156 1069 q 94 1008 124 1045 l 24 1008 l 25 1059 q 124 1134 64 1122 q 251 1138 142 1138 l 507 1138 q 487 1037 487 1073 q 502 1001 490 1000 q 543 657 502 797 q 620 782 620 705 q 615 828 620 797 q 610 874 610 859 q 661 907 610 907 q 705 873 689 907 q 716 814 716 846 q 675 691 716 745 q 596 615 655 666 q 554 558 554 579 q 609 330 554 524 q 679 95 659 149 q 769 -104 734 -53 q 944 -211 838 -211 q 1041 -166 977 -197 l 1118 -166 l 1118 -228 m 451 618 q 413 811 449 671 q 353 1001 377 947 q 296 727 339 941 q 251 462 248 479 q 451 618 308 503 z "},"B":{"ha":792,"x_min":20,"x_max":740,"o":"m 740 465 q 558 72 740 270 q 183 -127 376 -126 q 166 -118 186 -119 q 109 -131 146 -118 l 109 -76 q 478 94 332 -76 q 618 483 618 256 q 558 693 618 606 q 372 793 491 793 q 266 734 266 793 l 266 432 q 315 131 266 286 q 234 116 252 120 q 157 89 190 106 l 98 88 q 169 275 144 152 q 189 475 189 375 l 189 726 l 177 730 q 124 676 126 679 q 96 609 96 644 q 132 510 96 580 q 134 471 131 485 l 61 471 q 20 553 20 513 q 64 703 20 650 q 145 775 104 738 q 189 903 189 821 q 171 1063 189 978 q 135 1218 154 1140 q 293 1249 190 1218 q 451 1281 396 1281 q 606 1226 539 1281 q 677 1081 677 1167 q 606 939 677 995 q 475 845 541 892 q 678 701 624 774 q 740 465 740 619 m 554 1093 q 516 1179 554 1145 q 424 1213 477 1213 q 308 1181 337 1213 q 287 1104 289 1159 q 274 1016 286 1041 l 274 856 q 447 941 358 877 q 554 1093 554 1019 z "},"C":{"ha":868,"x_min":51,"x_max":988,"o":"m 988 -247 l 983 -269 l 903 -269 q 497 -150 698 -269 q 179 148 301 -36 q 51 547 51 341 q 182 969 51 777 q 546 1184 329 1184 q 831 1175 620 1184 q 670 1045 704 1045 q 645 1070 666 1045 q 620 1097 624 1095 q 519 1125 580 1125 q 285 965 396 1125 q 182 690 182 818 l 182 484 q 244 256 182 416 q 766 -189 374 -74 q 880 -213 780 -192 q 988 -247 953 -228 z "},"D":{"ha":722,"x_min":-223,"x_max":675,"o":"m 675 730 q 553 315 675 528 q 248 13 426 90 q 94 -34 172 -21 q -41 -59 -6 -49 q -106 -91 -54 -64 q -177 -112 -147 -112 q -208 -102 -193 -112 q -223 -75 -223 -91 q -166 -21 -223 -35 q -61 -7 -153 -17 q 161 42 73 7 q 351 166 266 82 q 507 433 440 252 q 571 738 571 605 q 508 1096 571 941 q 252 1308 424 1308 q 170 841 170 1308 q 171 721 170 789 q 172 644 172 653 q 250 182 172 447 l 61 182 l 61 223 q 103 537 96 311 q 109 759 106 648 q 110 784 110 758 q 100 1045 110 957 q 35 1299 84 1191 q 260 1348 155 1348 q 586 1134 473 1348 q 675 730 675 963 z "},"E":{"ha":733,"x_min":47,"x_max":924,"o":"m 924 -204 q 778 -245 834 -245 q 385 -134 565 -245 q 205 -36 295 -84 q 49 66 47 51 q 112 473 112 191 l 112 777 q 93 979 112 846 q 50 1168 72 1132 l 49 1209 l 671 1209 l 670 1168 q 641 1078 655 1145 l 601 1078 q 535 1115 579 1098 q 462 1132 492 1132 l 219 1132 q 190 1020 194 1095 q 188 902 189 961 l 188 878 l 453 878 q 582 911 471 878 l 580 865 q 536 748 566 825 q 458 803 497 791 q 365 811 432 811 q 188 810 162 811 l 188 500 q 189 265 188 294 q 227 37 194 88 q 443 -90 324 -39 q 685 -148 578 -148 q 787 -130 733 -148 q 884 -95 836 -112 q 924 -204 898 -131 z "},"F":{"ha":660,"x_min":42,"x_max":627,"o":"m 627 1115 q 586 983 612 1072 l 544 983 q 416 1046 480 1046 l 216 1046 q 186 887 186 994 q 265 845 186 845 q 425 856 331 845 q 583 875 505 866 q 458 640 567 818 q 366 396 366 487 q 368 356 366 383 q 370 316 370 329 q 365 250 370 287 l 322 250 q 279 343 279 296 q 360 562 279 406 q 441 745 441 718 q 347 795 441 786 q 221 797 323 797 q 186 763 186 797 l 185 238 q 306 -118 185 38 q 61 -46 154 -72 q 110 227 110 117 l 110 861 q 86 991 110 917 q 42 1115 64 1053 l 627 1115 z "},"G":{"ha":691,"x_min":25,"x_max":654,"o":"m 654 -21 q 596 -38 618 -38 q 573 -28 582 -38 q 176 168 336 -24 q 25 591 25 348 q 127 933 25 770 q 411 1113 243 1120 q 653 1104 425 1104 q 541 919 616 1003 q 488 1013 515 984 q 394 1053 451 1053 q 191 877 262 1053 q 138 591 138 745 q 229 249 138 435 q 473 31 336 31 q 507 150 501 31 q 508 296 508 170 q 497 372 508 351 q 429 402 479 402 q 362 383 385 402 q 317 330 360 381 q 241 470 296 363 l 634 480 q 583 226 583 352 q 654 -21 583 64 z "},"H":{"ha":764,"x_min":23,"x_max":1084,"o":"m 1084 -270 q 964 -303 1047 -303 q 809 -252 894 -303 q 660 -146 760 -225 q 519 -47 566 -73 q 578 190 578 49 q 495 432 578 345 q 270 559 428 503 l 270 352 q 328 -9 270 182 l 145 -9 q 194 450 194 156 q 150 633 194 581 q 67 685 144 640 q 23 780 23 712 q 72 826 23 826 q 118 765 80 826 q 185 683 159 698 l 185 856 q 163 941 185 859 q 139 1037 141 1029 q 329 1131 201 1069 q 262 860 262 994 l 262 652 l 567 462 l 578 470 l 578 799 q 512 1113 578 882 l 698 1113 q 648 888 659 1037 q 644 650 644 829 l 645 272 q 672 148 654 247 q 734 -110 709 -52 q 843 -205 767 -185 q 1084 -219 896 -219 l 1084 -270 z "},"I":{"ha":285,"x_min":38,"x_max":227,"o":"m 227 -12 l 38 -12 q 98 392 98 138 l 98 848 q 76 991 98 904 q 44 1130 49 1094 l 225 1130 q 166 697 166 968 l 166 420 q 182 198 166 329 q 227 -12 200 46 z "},"J":{"ha":503,"x_min":-103,"x_max":457,"o":"m 457 1277 l 456 1219 q 400 549 400 1130 q 402 345 400 464 q 404 205 404 227 q 339 -68 404 35 q 105 -192 263 -192 q -3 -169 64 -192 q -103 -122 -65 -147 q -28 -35 -73 -35 q 23 -65 -30 -35 q 124 -96 75 -96 q 284 5 222 -96 q 336 196 336 90 l 336 927 q 324 1037 336 968 q 309 1149 310 1123 l 294 1149 q 183 1097 222 1149 q 135 1002 172 1084 q 80 951 112 951 q 41 1008 41 951 q 207 1181 41 1103 q 457 1277 332 1228 z "},"K":{"ha":701,"x_min":12,"x_max":1027,"o":"m 892 -301 q 726 -262 808 -301 q 584 -168 663 -231 q 453 -56 519 -111 q 466 11 454 -35 q 479 84 479 57 q 432 354 479 190 q 365 618 374 552 l 347 618 q 247 575 286 618 q 208 470 208 531 q 265 -7 208 215 l 94 -7 q 117 105 105 50 q 131 219 131 174 l 131 476 q 80 441 91 471 q 74 377 75 427 q 59 315 72 334 l 16 315 l 14 341 q 12 388 12 367 q 43 495 12 469 q 100 536 71 516 q 131 674 131 572 q 74 1134 131 961 l 236 1134 q 199 792 199 949 q 203 713 199 764 q 208 633 207 659 q 409 774 316 649 q 498 1005 498 894 q 465 1141 498 1056 l 650 1141 q 606 1009 632 1097 q 564 876 580 918 q 490 766 553 853 q 432 667 432 689 q 493 426 432 644 q 565 169 564 172 q 647 -83 605 0 q 840 -234 723 -234 q 951 -199 895 -234 l 1020 -198 l 1021 -216 q 892 -301 1027 -301 z "},"L":{"ha":253,"x_min":17,"x_max":921,"o":"m 921 -227 q 654 -263 816 -263 q 17 -112 572 -263 q 68 145 68 53 l 68 844 q 51 966 68 894 q 19 1087 35 1027 q 206 1146 81 1106 q 146 727 146 934 l 146 208 q 163 71 146 159 q 190 -66 176 2 q 389 -144 250 -108 q 601 -177 521 -177 q 734 -152 671 -177 q 856 -103 796 -127 q 921 -227 888 -156 z "},"M":{"ha":816,"x_min":28,"x_max":1289,"o":"m 1289 -191 q 1160 -294 1289 -294 q 611 -22 846 -294 q 631 45 612 -3 q 649 125 649 90 q 648 147 649 137 l 550 998 l 551 998 l 417 383 l 383 363 l 236 990 l 238 990 q 201 663 220 826 q 177 345 177 443 l 177 123 q 206 -8 177 88 l 28 -8 l 29 35 q 110 465 69 104 q 145 929 145 780 q 104 1140 145 1046 q 267 1147 149 1147 l 343 1147 q 330 1041 330 1104 q 396 678 330 853 q 458 1009 458 845 q 453 1050 458 1023 q 447 1089 447 1076 q 462 1156 447 1113 l 670 1156 q 672 991 675 1090 q 670 824 670 814 q 760 97 670 459 q 1063 -236 843 -236 q 1213 -191 1120 -236 l 1289 -191 z "},"N":{"ha":670,"x_min":12,"x_max":634,"o":"m 634 196 q 472 185 529 183 l 459 185 l 461 250 q 411 595 466 466 q 287 788 388 652 q 159 1042 198 909 l 152 1042 l 152 419 q 229 -119 152 135 l 67 -119 l 67 802 q 12 1181 67 1013 q 211 1262 67 1200 l 260 1262 q 241 1197 258 1242 q 225 1133 225 1156 q 321 889 225 1061 q 470 661 405 735 l 478 1023 q 447 1179 479 1057 q 397 1332 414 1302 l 586 1332 q 556 1140 561 1245 q 554 943 554 1101 q 560 557 554 662 q 634 196 576 287 z "},"O":{"ha":681,"x_min":24,"x_max":637,"o":"m 637 458 q 565 119 637 294 q 339 -97 477 -97 q 101 138 196 -97 q 24 494 24 326 q 95 841 24 668 q 331 1060 185 1060 q 567 821 477 1060 q 637 458 637 635 m 506 297 l 506 574 q 469 828 506 704 q 322 1001 418 1001 q 185 809 229 1001 q 155 539 155 681 q 184 213 155 362 q 339 -30 231 -30 q 463 102 412 -30 q 506 297 506 208 z "},"P":{"ha":733,"x_min":16,"x_max":1127,"o":"m 1127 -319 q 814 -352 1037 -352 q 545 -292 667 -352 q 359 -171 503 -271 q 169 -81 253 -98 q 213 140 213 27 q 208 219 213 166 q 204 300 204 273 q 209 362 204 334 l 199 362 q 124 309 145 362 q 101 209 120 301 q 63 156 90 156 q 16 222 16 156 q 65 332 16 279 q 155 411 74 343 q 204 480 204 451 q 120 1021 204 830 q 253 1067 186 1044 q 394 1090 325 1090 q 591 1031 516 1090 q 674 847 674 966 q 571 616 674 720 q 382 479 510 554 q 280 400 280 420 l 280 196 q 286 193 280 193 q 307 134 296 193 q 463 -183 339 -68 q 795 -302 591 -302 q 1058 -209 914 -302 q 1127 -319 1080 -247 m 551 847 q 375 1014 551 1012 q 346 1021 373 1021 q 289 1015 324 1021 l 289 501 l 301 501 q 472 642 425 587 q 551 847 551 733 z "},"Q":{"ha":670,"x_min":23,"x_max":1056,"o":"m 1056 -326 q 924 -347 966 -347 q 883 -334 887 -347 q 681 -300 757 -334 q 525 -171 604 -266 q 480 -105 503 -139 q 436 -50 442 -50 q 329 -76 405 -76 q 109 117 208 -76 q 23 418 23 285 l 23 615 q 103 900 23 744 q 311 1081 196 1081 q 554 841 462 1081 q 626 480 626 655 q 565 144 626 284 q 483 -8 525 79 q 627 -187 539 -118 q 838 -267 728 -267 q 919 -255 884 -267 q 991 -219 931 -250 q 1056 -326 1029 -291 m 495 284 l 495 551 q 456 819 495 672 q 311 1023 403 1023 q 175 853 219 1023 q 145 605 145 737 q 170 248 145 400 q 329 -17 216 -17 q 392 8 355 -17 q 343 122 369 39 q 301 243 308 227 q 211 356 282 286 q 147 435 147 420 q 160 474 147 456 q 194 492 174 492 q 348 322 265 492 q 447 86 397 204 q 495 284 495 185 z "},"R":{"ha":649,"x_min":16,"x_max":1102,"o":"m 1102 -257 q 1001 -299 1050 -299 q 716 -208 900 -299 q 441 -62 579 -135 q 471 44 471 -2 q 443 190 471 79 q 402 337 419 285 q 363 477 383 406 q 296 587 330 587 q 208 576 235 587 q 163 513 163 560 q 231 -6 163 209 q 141 -15 177 -15 q 58 5 94 -15 q 88 161 88 78 l 88 544 q 16 1071 88 825 q 314 1146 200 1146 q 513 1080 424 1146 q 611 902 611 1007 q 556 751 611 819 q 453 661 520 707 q 397 617 397 624 l 522 227 q 667 -51 587 24 q 899 -230 784 -140 q 979 -216 931 -229 q 1056 -204 1027 -204 q 1102 -203 1071 -204 l 1102 -257 m 480 895 q 418 1024 480 971 q 278 1078 355 1078 q 190 1052 209 1078 q 174 959 174 1031 l 174 638 l 205 638 q 269 655 211 638 q 480 895 480 721 z "},"S":{"ha":649,"x_min":-287,"x_max":606,"o":"m 606 318 q 503 50 606 177 q 270 -122 407 -71 q 142 -153 227 -137 q 19 -185 58 -170 q -115 -243 -64 -214 q -175 -288 -119 -245 q -235 -321 -216 -321 l -287 -326 q -233 -227 -272 -289 q -30 -145 -163 -145 q 329 5 168 -145 q 494 353 494 156 q 448 529 494 458 q 314 652 407 590 q 167 196 205 495 q 67 322 75 285 q 255 685 255 609 q 201 716 255 685 q 29 935 29 819 q 113 1079 29 1024 q 282 1125 188 1125 q 557 1116 282 1125 q 422 916 491 1028 q 330 712 330 763 q 339 699 330 706 q 450 628 344 696 q 551 541 514 589 q 606 318 606 465 m 351 979 q 329 1040 351 1014 q 273 1066 308 1066 q 182 1017 218 1066 q 150 917 150 973 q 272 752 150 813 q 351 979 351 914 z "},"T":{"ha":581,"x_min":10,"x_max":1138,"o":"m 1138 1009 q 1037 987 1071 987 q 1007 1001 1007 991 q 1009 1007 1007 1005 q 784 1023 861 1007 q 662 1052 722 1037 q 536 1068 594 1068 q 469 679 469 1068 q 469 591 469 641 q 470 537 470 543 q 490 172 470 286 q 638 -154 524 -27 l 625 -172 q 484 -83 565 -152 q 346 2 403 -15 q 390 109 383 87 q 407 223 407 162 l 407 848 q 392 958 407 877 q 367 1064 377 1039 q 356 1078 361 1078 q 208 1041 282 1078 q 81 959 174 1023 q 10 1046 57 987 q 199 1139 69 1106 q 410 1164 303 1164 q 719 1102 516 1164 q 1027 1039 922 1039 q 1138 1072 1061 1039 l 1138 1009 z "},"U":{"ha":649,"x_min":29,"x_max":600,"o":"m 600 932 q 559 706 559 764 l 559 287 q 573 130 559 235 q 587 -27 587 25 q 493 -177 587 -126 q 308 -216 418 -216 q 134 -144 186 -216 q 90 44 90 -82 q 94 215 90 97 q 97 395 97 332 q 29 866 97 692 q 209 926 111 900 q 157 644 157 752 l 157 153 q 177 -53 157 1 q 333 -157 213 -157 q 440 -132 389 -157 q 501 -51 501 -101 q 505 72 505 -43 q 501 350 505 194 q 463 804 495 646 q 428 932 450 846 l 600 932 z "},"V":{"ha":670,"x_min":38,"x_max":626,"o":"m 626 1116 q 521 623 575 941 q 463 125 463 284 q 499 -10 463 50 q 282 -17 410 -17 l 245 -16 q 262 47 262 20 q 251 80 262 72 q 184 571 251 282 q 38 1043 124 828 q 181 1118 134 1089 q 361 91 208 618 l 369 91 q 435 488 403 289 q 478 882 478 759 q 472 985 478 920 q 465 1087 466 1058 q 544 1104 491 1100 q 626 1116 609 1110 z "},"W":{"ha":847,"x_min":19,"x_max":1192,"o":"m 1192 1086 l 1142 1086 q 1083 1117 1139 1086 q 966 1148 1027 1148 q 700 337 700 1148 l 700 141 q 737 3 700 75 q 829 -102 773 -68 l 758 -102 q 653 -59 728 -102 q 534 -12 578 -16 q 536 32 536 12 q 513 227 536 131 q 456 416 505 260 l 448 416 l 405 96 q 438 -13 407 90 l 226 -13 q 240 66 240 54 q 234 73 240 67 q 229 105 229 80 q 168 578 229 286 q 19 1015 101 903 q 102 1068 44 1035 q 188 1123 160 1101 q 184 1034 184 1069 q 190 973 184 983 q 245 556 192 845 q 280 358 263 457 q 332 168 310 204 l 419 698 l 447 698 l 613 172 q 627 208 627 190 q 621 247 627 221 q 615 285 615 272 q 623 365 615 314 q 637 444 634 432 q 659 785 659 634 q 609 1042 659 892 q 791 1142 699 1093 q 992 1190 888 1190 q 1192 1130 1115 1190 l 1192 1086 z "},"X":{"ha":691,"x_min":56,"x_max":674,"o":"m 674 -106 q 595 -161 634 -134 q 512 -209 550 -192 q 509 -108 509 -186 q 453 145 509 -32 q 352 383 396 322 q 266 179 304 321 q 229 -57 229 43 q 230 -91 229 -75 l 56 -91 q 304 491 304 421 q 203 723 304 544 q 57 940 105 892 q 220 1036 126 1002 q 260 813 221 951 q 350 608 303 667 q 443 961 443 762 q 436 1039 443 1003 l 623 1039 q 491 764 575 951 q 389 500 391 542 q 512 186 485 248 q 674 -106 589 7 z "},"Y":{"ha":576,"x_min":24,"x_max":1104,"o":"m 1104 1081 q 1091 1055 1104 1067 q 1065 1043 1078 1043 q 1015 1069 1044 1043 q 954 1116 973 1105 q 851 1142 909 1142 q 666 1030 772 1142 q 497 793 571 931 q 424 580 424 656 l 424 221 q 461 65 424 153 q 543 -78 493 -14 l 524 -90 q 411 -16 465 -35 q 287 17 350 1 q 338 141 338 110 l 338 571 q 196 836 338 613 q 24 1094 88 1006 q 188 1183 79 1123 l 186 1145 l 188 1118 q 191 1109 188 1108 q 263 897 191 1053 q 374 697 331 747 q 506 1071 506 912 q 510 1110 506 1091 q 689 1159 545 1116 q 868 1192 801 1192 q 1005 1160 920 1192 q 1104 1081 1104 1122 z "},"Z":{"ha":681,"x_min":49,"x_max":645,"o":"m 645 -137 q 353 -142 522 -144 l 49 -141 q 115 -13 66 -97 q 182 117 164 71 q 352 598 282 378 q 429 858 375 686 l 429 950 l 346 950 q 279 924 331 950 q 188 822 207 888 q 171 709 179 766 q 98 623 157 648 l 98 706 q 117 752 98 705 q 135 856 135 799 q 130 906 135 874 q 124 954 124 939 q 140 1001 124 961 l 240 1000 q 619 1012 417 1000 q 537 829 597 946 q 451 646 475 705 q 329 287 389 478 q 238 -81 235 -5 l 402 -81 q 500 -28 462 -81 q 532 80 534 21 l 532 130 q 579 277 531 221 l 624 277 l 624 228 q 610 172 624 221 q 596 69 596 123 q 645 -137 596 8 z "},"`":{"ha":233,"x_min":56,"x_max":191,"o":"m 56 1013 q 191 799 56 847 q 159 869 188 810 q 138 941 138 913 q 156 1000 138 962 q 175 1072 175 1038 q 156 1113 175 1093 q 122 1147 139 1131 q 67 1093 76 1108 q 56 1013 56 1072 z "},"a":{"ha":473,"x_min":16,"x_max":425,"o":"m 425 -10 l 296 -10 q 325 122 310 56 q 340 256 340 200 q 328 329 340 294 q 281 375 311 375 q 167 294 219 375 q 120 155 120 221 q 200 -38 120 24 q 380 -144 289 -90 l 258 -141 q 84 -34 140 -95 q 16 155 16 42 q 97 337 16 270 q 248 421 117 353 q 330 519 330 464 q 307 560 330 542 q 260 579 284 579 q 200 554 229 579 q 153 508 176 531 l 87 507 l 87 575 q 208 634 155 634 q 365 586 323 634 q 404 425 404 542 q 400 322 404 390 q 396 220 396 253 q 424 56 396 115 l 425 -10 z "},"b":{"ha":483,"x_min":19,"x_max":453,"o":"m 453 316 q 411 126 453 197 q 271 -10 370 54 l 34 -12 l 34 54 q 49 142 34 80 q 64 234 64 204 l 64 639 q 19 897 64 757 q 147 914 108 914 q 142 605 146 811 q 229 630 206 630 q 395 519 328 630 q 453 316 453 421 m 339 316 q 321 458 339 392 q 240 557 295 557 q 168 534 196 557 q 140 468 140 510 l 140 213 q 198 42 140 42 q 339 316 339 42 z "},"c":{"ha":378,"x_min":-3,"x_max":352,"o":"m 352 116 q 201 -8 256 -8 q 49 112 111 -8 q -3 309 -3 214 q 46 522 -3 424 q 212 644 108 644 q 288 608 252 644 q 324 531 324 572 q 251 459 324 459 q 201 514 200 459 q 229 565 212 529 l 229 581 l 176 581 q 100 470 119 523 q 81 338 81 421 q 117 183 81 251 q 241 98 161 98 q 352 116 273 98 z "},"d":{"ha":493,"x_min":7,"x_max":447,"o":"m 447 -13 q 263 -10 426 -10 q 78 90 154 -10 q 7 295 7 183 q 69 505 7 394 q 231 630 141 630 q 329 595 265 630 q 340 666 340 627 q 329 760 340 696 q 321 854 318 821 l 323 889 q 400 924 369 924 l 446 924 l 446 881 q 425 758 446 846 q 404 628 404 670 l 403 558 q 444 34 397 137 l 447 -13 m 331 400 q 242 557 330 557 q 154 464 186 557 q 131 324 131 395 q 263 43 131 43 q 325 148 311 43 q 331 289 331 190 l 331 400 z "},"e":{"ha":399,"x_min":24,"x_max":363,"o":"m 363 481 q 325 409 363 409 q 273 414 308 409 q 220 419 237 419 q 101 369 101 419 q 135 198 101 277 q 262 96 181 96 q 302 99 275 96 q 341 102 329 102 l 346 80 q 200 -6 221 -6 q 65 118 117 -6 q 24 310 24 216 q 68 520 24 429 q 230 634 124 634 q 363 481 363 634 m 270 512 q 255 552 270 532 q 220 572 240 572 q 163 539 188 572 q 134 477 142 513 q 215 477 175 477 q 270 512 270 479 z "},"f":{"ha":389,"x_min":13,"x_max":347,"o":"m 347 546 q 274 627 288 569 q 194 715 260 684 l 175 715 q 142 480 142 634 q 161 231 142 397 q 179 -15 179 66 l 50 -15 q 74 284 74 75 q 72 353 74 307 q 71 422 71 399 l 71 716 q 53 771 71 747 q 13 814 32 793 q 95 821 80 823 q 109 995 95 958 q 248 1073 138 1073 q 303 1064 288 1073 q 338 1025 309 1060 l 340 969 q 207 968 332 968 q 161 935 169 968 q 159 868 159 926 q 186 785 159 807 q 256 766 207 766 q 294 767 267 766 q 334 769 321 769 q 332 719 334 755 q 330 666 330 684 q 347 546 330 596 z "},"g":{"ha":514,"x_min":35,"x_max":556,"o":"m 556 -106 q 483 -211 556 -183 q 334 -229 435 -228 q 214 -238 233 -230 q 164 -274 201 -244 q 106 -301 134 -299 q 65 -306 97 -301 q 172 -201 72 -222 q 354 -184 263 -193 q 450 -106 450 -171 q 343 -34 450 -60 q 142 1 341 -34 q 35 46 35 19 q 86 115 35 66 q 137 196 137 163 q 111 229 137 203 q 61 293 78 260 q 35 411 35 343 q 108 596 35 541 q 301 645 171 645 q 360 697 316 645 q 434 756 404 750 q 484 759 451 756 l 484 689 q 366 612 443 667 q 463 432 464 510 l 462 400 q 383 216 459 270 q 244 168 351 193 q 169 106 169 150 q 270 39 169 54 q 456 12 362 25 q 556 -106 556 -19 m 350 390 q 328 509 350 448 q 249 590 299 590 q 149 421 149 590 q 175 297 149 360 q 260 219 207 219 q 329 287 301 219 q 350 390 350 341 z "},"h":{"ha":420,"x_min":16,"x_max":443,"o":"m 443 -160 q 405 -191 424 -176 q 363 -211 380 -211 q 306 -38 306 -211 q 312 141 306 14 q 318 329 318 267 q 221 580 318 580 q 135 525 166 580 q 110 422 110 481 q 114 290 110 378 q 118 156 118 201 q 110 2 118 80 l 17 2 l 17 59 q 32 148 17 87 q 47 238 47 208 l 47 713 q 32 813 47 745 q 17 916 16 880 q 91 925 68 925 l 150 924 q 119 853 134 896 l 120 847 q 111 806 120 831 l 111 618 q 242 655 211 655 q 352 593 321 655 q 374 459 374 549 q 369 344 374 421 q 365 228 365 266 q 443 -160 365 -86 z "},"i":{"ha":215,"x_min":24,"x_max":169,"o":"m 166 809 q 147 766 166 784 q 103 748 128 748 q 64 773 80 748 q 50 819 50 795 q 68 870 50 847 q 113 892 87 892 q 150 863 135 892 q 166 809 166 833 m 169 619 q 125 334 125 487 q 135 179 125 275 q 164 35 148 64 l 166 -13 l 41 -13 l 41 34 q 56 97 41 52 q 71 163 71 141 l 72 248 q 68 436 74 377 q 24 619 59 541 l 169 619 z "},"j":{"ha":253,"x_min":13,"x_max":197,"o":"m 192 837 q 130 784 192 784 q 94 803 109 784 q 79 845 79 823 q 95 896 79 875 q 140 918 111 918 q 181 889 166 918 q 192 837 192 866 m 197 655 q 156 262 156 519 q 160 54 156 189 q 164 -135 164 -81 q 156 -233 164 -204 q 90 -291 141 -291 q 13 -228 73 -291 q 91 -94 76 -166 q 97 67 98 -58 l 120 67 q 117 65 119 65 q 104 134 109 65 q 97 390 97 218 q 82 523 97 442 q 56 655 69 589 l 197 655 z "},"k":{"ha":449,"x_min":19,"x_max":464,"o":"m 464 -91 l 446 -104 q 281 -27 375 -41 q 286 10 286 -9 q 271 167 286 104 q 220 315 262 206 q 115 262 115 306 q 127 117 115 204 q 147 -28 146 -21 l 19 -28 q 30 216 30 20 l 53 218 q 51 215 53 216 q 46 236 49 215 q 41 300 44 256 q 30 630 35 403 q 24 763 30 659 q 22 894 21 844 l 138 894 l 138 853 q 131 815 138 841 q 123 775 124 784 q 106 549 106 662 q 111 485 106 528 q 115 420 115 442 q 110 369 115 392 l 163 369 q 266 434 235 405 q 316 539 316 479 q 311 599 316 560 q 306 659 306 638 q 328 703 306 703 q 396 677 380 703 q 409 601 409 657 q 375 468 409 525 q 311 394 355 434 q 278 347 278 361 q 464 -91 278 302 z "},"l":{"ha":222,"x_min":23,"x_max":170,"o":"m 162 -20 l 23 -20 q 59 214 59 93 l 59 900 l 81 905 q 112 848 100 866 q 159 807 132 819 q 162 800 162 806 q 166 667 162 756 q 170 532 170 578 q 162 397 170 487 l 161 398 q 133 326 133 398 q 148 154 133 270 q 162 -20 162 38 z "},"m":{"ha":753,"x_min":31,"x_max":720,"o":"m 720 285 q 653 34 720 169 q 481 -154 580 -116 l 470 -134 q 583 56 543 -75 q 617 275 617 163 q 580 472 617 385 q 435 587 530 587 q 388 285 388 587 q 422 1 388 126 l 277 1 q 322 249 322 149 q 317 364 322 287 q 311 479 311 441 q 318 576 311 542 l 282 576 q 149 536 183 576 q 123 416 123 505 q 124 355 123 399 q 125 285 125 311 q 159 1 125 138 l 31 1 l 31 54 q 45 134 31 75 q 59 225 59 193 l 59 446 q 31 586 59 507 l 31 634 q 118 620 86 620 q 242 626 160 620 q 366 631 324 631 q 638 550 556 631 q 720 285 720 470 z "},"n":{"ha":503,"x_min":35,"x_max":470,"o":"m 470 285 q 417 126 470 164 l 436 127 q 338 -51 384 7 q 168 -155 269 -134 l 160 -133 q 367 304 367 -17 q 328 487 367 407 q 186 587 279 587 q 135 319 135 587 q 139 161 135 253 q 142 64 142 68 q 137 -9 142 44 l 35 -9 l 35 34 q 41 68 35 45 q 50 104 49 98 q 74 336 74 249 q 41 618 74 402 l 206 618 q 409 514 337 618 q 470 285 470 422 z "},"o":{"ha":485,"x_min":13,"x_max":449,"o":"m 449 322 q 390 112 449 219 q 226 -12 322 -12 q 71 105 138 -12 q 13 303 13 207 q 78 509 13 398 q 236 635 149 635 q 390 519 323 635 q 449 322 449 416 m 325 211 l 325 444 q 304 524 325 483 q 247 574 280 574 q 148 463 172 574 q 137 292 137 407 q 226 42 137 42 q 300 108 269 42 q 325 211 325 162 z "},"p":{"ha":483,"x_min":10,"x_max":440,"o":"m 440 306 q 388 104 440 198 q 227 -8 325 -8 q 127 29 216 -8 l 127 -113 q 162 -311 127 -172 l 35 -311 l 35 -266 q 49 -108 35 -216 q 64 54 64 1 l 65 235 q 50 476 66 325 q 10 703 32 645 q 144 748 54 716 l 144 721 q 144 617 145 686 q 227 641 201 641 q 388 515 325 641 q 440 306 440 412 m 326 297 q 311 455 326 387 q 227 568 286 568 q 138 428 138 568 l 138 154 q 168 92 138 126 q 227 58 199 58 q 326 297 326 58 z "},"q":{"ha":485,"x_min":20,"x_max":427,"o":"m 427 -299 l 308 -299 q 344 -123 344 -178 l 344 41 q 288 20 337 39 q 234 5 250 5 q 73 125 137 5 q 20 329 20 225 q 81 549 20 456 q 273 654 152 654 q 318 647 288 654 q 362 640 347 640 q 427 666 392 640 l 427 -299 m 333 188 l 333 419 q 273 591 333 591 q 160 513 203 591 q 125 370 125 448 q 142 193 125 272 q 234 67 170 67 q 301 112 266 67 q 333 188 333 154 z "},"r":{"ha":399,"x_min":37,"x_max":367,"o":"m 367 571 q 315 479 367 543 q 270 547 292 513 q 193 576 245 576 q 148 530 156 576 q 145 456 145 516 l 145 229 q 178 -8 145 120 l 51 -8 l 51 35 q 81 266 81 109 q 69 443 81 340 q 37 613 56 563 q 184 630 131 630 q 234 622 227 630 q 301 634 269 634 q 367 571 367 634 z "},"s":{"ha":451,"x_min":15,"x_max":422,"o":"m 422 167 q 331 -1 422 45 q 130 -36 264 -36 q 15 -60 119 -36 q 64 102 30 -6 q 135 46 100 73 q 220 19 171 19 q 312 57 275 19 q 348 149 348 95 q 271 273 348 212 q 125 377 198 325 q 46 520 46 444 q 106 633 46 588 q 230 675 161 675 q 275 666 247 675 q 321 657 304 657 q 395 670 352 657 q 329 509 388 596 q 284 583 302 563 q 209 619 252 619 q 152 594 172 619 q 131 530 131 568 q 207 425 131 478 q 347 328 345 330 q 422 167 422 259 z "},"t":{"ha":326,"x_min":-7,"x_max":285,"o":"m 285 435 q 228 531 247 471 q 179 610 211 587 l 145 610 l 145 209 q 257 64 145 94 q 209 16 233 41 q 152 -14 176 -14 q 105 20 130 -14 q 81 76 81 54 l 81 626 q -7 691 51 647 q 80 711 52 699 q 71 811 73 770 q 188 869 110 830 q 156 753 156 757 l 156 664 l 285 664 l 285 435 z "},"u":{"ha":472,"x_min":8,"x_max":451,"o":"m 451 618 q 405 314 405 506 q 414 91 405 108 q 404 -12 414 76 l 264 -12 q 73 79 144 -12 q 8 285 8 162 q 87 532 8 373 q 184 788 172 709 q 282 712 237 741 q 152 522 186 616 q 120 295 120 436 q 264 32 120 32 q 338 188 323 32 q 343 385 343 235 q 309 618 343 447 l 451 618 z "},"v":{"ha":451,"x_min":13,"x_max":433,"o":"m 433 630 l 432 586 q 328 97 328 381 q 333 -7 328 43 l 138 -7 q 115 402 138 209 q 13 784 82 674 q 167 850 45 804 q 153 697 153 788 q 229 117 153 453 l 242 117 q 309 630 317 431 l 433 630 z "},"w":{"ha":701,"x_min":10,"x_max":660,"o":"m 660 580 q 616 340 660 507 q 573 84 573 172 q 583 -8 573 32 l 395 -8 q 336 259 395 172 q 277 -19 277 171 l 78 -19 q 102 96 102 61 q 92 123 102 116 q 82 135 82 130 q 61 450 82 354 q 10 632 39 508 l 137 632 l 135 575 q 189 113 133 273 q 270 295 221 148 q 334 498 302 396 q 400 306 350 468 q 477 141 443 169 q 544 329 508 186 q 578 530 578 465 q 545 612 578 586 q 459 641 519 633 q 538 743 490 743 q 630 688 595 743 q 660 580 660 640 z "},"x":{"ha":485,"x_min":-14,"x_max":448,"o":"m 448 627 l 259 325 l 439 13 l 441 -13 l 282 -13 q 288 60 288 25 q 223 243 288 168 q 138 -13 138 132 l -14 -13 q 97 169 -6 6 q 184 334 184 309 q 105 478 184 350 q 13 627 59 552 l 167 627 q 225 410 167 475 q 295 627 295 476 l 448 627 z "},"y":{"ha":462,"x_min":22,"x_max":465,"o":"m 465 -220 q 406 -319 433 -295 q 301 -353 370 -353 q 172 -334 256 -353 q 43 -310 79 -314 q 81 -190 67 -229 q 134 -75 105 -122 q 154 -47 145 -61 q 168 -19 168 -30 q 78 188 102 74 q 57 388 67 238 q 22 598 47 516 l 175 598 q 128 391 128 447 q 214 69 128 150 q 313 247 273 133 q 348 446 348 352 q 317 595 348 547 q 205 691 293 633 q 287 808 227 734 q 368 706 328 757 q 417 617 404 660 q 433 476 433 566 q 331 120 433 326 q 140 -201 275 8 l 140 -229 q 267 -255 211 -230 q 341 -280 323 -280 q 405 -257 368 -280 q 465 -220 435 -238 z "},"z":{"ha":514,"x_min":54,"x_max":483,"o":"m 483 625 l 212 95 l 212 50 l 329 50 q 390 83 381 76 q 432 132 396 89 q 456 74 456 71 q 443 -25 456 82 q 54 -14 398 -22 q 200 256 82 66 q 329 561 301 417 l 265 561 q 138 494 208 561 q 110 572 110 547 q 123 644 110 573 q 266 622 157 622 q 360 625 300 622 q 435 626 417 627 l 483 625 z "},"~":{"ha":2220,"x_min":7,"x_max":2153,"o":"m 2153 160 q 2118 63 2131 116 q 2098 -23 2108 20 q 1899 1 1990 1 l 1547 1 l 1547 1189 q 1513 1262 1547 1229 q 1428 1326 1471 1294 q 1681 1331 1608 1313 l 1681 270 q 1678 193 1681 237 q 1676 135 1676 149 q 1690 81 1676 97 q 1745 65 1704 65 q 2006 102 1895 65 q 2153 160 2079 131 m 748 287 q 352 -2 748 -2 q 128 24 228 -2 q 7 67 124 25 q 73 222 50 188 q 130 147 102 184 q 222 66 172 94 q 395 29 293 29 q 572 73 488 29 q 672 213 672 126 l 17 705 q 125 926 17 838 q 417 1016 237 1016 q 597 991 510 1016 q 693 931 689 965 q 631 785 670 890 q 340 972 545 972 q 177 906 249 972 q 104 749 104 839 l 104 684 q 271 587 104 632 q 581 492 522 520 q 748 287 748 416 m 1448 1022 l 1447 991 q 1411 894 1434 969 q 1303 958 1351 940 q 1106 990 1225 990 q 1016 962 1030 990 q 1001 788 1001 934 l 1001 149 l 1447 149 q 1404 64 1432 108 q 1352 10 1372 10 q 1309 35 1350 10 q 1214 81 1262 65 q 1065 105 1144 105 q 1010 86 1023 105 q 997 15 997 67 q 999 -59 997 -1 q 1001 -160 1001 -117 q 986 -243 1001 -229 q 873 -319 929 -281 l 873 670 q 874 767 873 709 q 875 843 875 824 q 858 956 875 925 q 777 1000 838 992 l 777 1022 l 1448 1022 m 1662 -166 q 1639 -242 1662 -209 q 1568 -279 1612 -279 q 1517 -250 1517 -279 q 1530 -236 1517 -236 q 1546 -253 1542 -236 q 1573 -271 1550 -271 q 1633 -179 1620 -271 q 1578 -196 1600 -196 q 1505 -128 1505 -196 q 1527 -80 1505 -101 q 1581 -60 1550 -60 q 1662 -166 1662 -60 m 1472 -279 l 1414 -279 q 1428 -263 1428 -266 l 1428 -103 q 1404 -90 1428 -94 l 1404 -88 q 1453 -61 1418 -84 l 1461 -60 l 1461 -263 q 1472 -279 1461 -266 m 2050 -220 q 2027 -264 2050 -247 q 1972 -282 2003 -282 q 1914 -267 1940 -282 q 1889 -229 1889 -252 q 1914 -207 1889 -207 q 1931 -220 1931 -207 q 1922 -230 1931 -225 q 1914 -243 1914 -236 q 1930 -262 1914 -252 q 1968 -272 1946 -272 q 2001 -259 1983 -272 q 2019 -220 2019 -245 q 1948 -167 2019 -164 l 1947 -167 q 1988 -151 1968 -160 q 2009 -117 2009 -142 q 1996 -83 2009 -98 q 1962 -68 1983 -68 q 1933 -82 1942 -68 q 1939 -102 1939 -111 q 1922 -112 1939 -112 q 1907 -98 1907 -112 q 1921 -76 1907 -87 q 1969 -62 1940 -62 q 2039 -117 2039 -62 q 1992 -164 2039 -139 l 1997 -167 q 2040 -192 2030 -183 q 2050 -220 2050 -201 m 1859 -168 q 1837 -244 1859 -213 q 1766 -281 1811 -281 q 1715 -253 1715 -281 q 1729 -240 1715 -240 q 1745 -258 1741 -240 q 1770 -275 1749 -275 q 1817 -242 1802 -275 q 1829 -200 1823 -221 l 1807 -193 l 1806 -199 l 1806 -196 q 1777 -200 1796 -200 q 1703 -132 1703 -200 q 1725 -84 1703 -104 q 1780 -64 1747 -64 q 1859 -168 1859 -64 m 1341 -179 q 1310 -251 1341 -223 q 1225 -278 1278 -278 q 1140 -250 1172 -278 q 1108 -179 1108 -222 q 1141 -109 1108 -138 q 1225 -81 1175 -81 q 1309 -109 1277 -81 q 1341 -179 1341 -137 m 1628 -162 l 1628 -126 q 1616 -86 1628 -105 q 1580 -67 1603 -67 q 1537 -123 1537 -67 q 1582 -189 1537 -189 q 1615 -179 1601 -189 q 1628 -162 1628 -169 m 1828 -166 l 1828 -130 q 1816 -93 1828 -109 q 1779 -72 1802 -72 q 1734 -126 1734 -72 q 1781 -191 1734 -191 q 1814 -182 1800 -191 q 1828 -166 1828 -172 m 1318 -193 l 1265 -181 q 1235 -204 1247 -204 q 1209 -177 1209 -204 q 1233 -154 1209 -154 q 1244 -183 1244 -154 l 1301 -183 l 1301 -111 q 1230 -98 1255 -98 q 1163 -121 1188 -98 q 1138 -179 1138 -144 q 1162 -236 1138 -213 q 1226 -259 1186 -259 q 1318 -193 1282 -259 m 1328 -178 q 1299 -117 1328 -142 q 1226 -93 1271 -93 q 1150 -118 1178 -93 q 1123 -178 1123 -144 q 1151 -241 1123 -216 q 1227 -266 1179 -266 q 1299 -242 1271 -266 q 1328 -178 1328 -218 z "},"Ä":{"ha":751,"x_min":24,"x_max":1118,"o":"m 506 1252 q 449 1170 462 1170 q 392 1208 412 1170 q 377 1279 377 1240 q 396 1343 377 1302 q 436 1384 416 1384 q 506 1252 491 1384 m 213 1245 q 156 1163 170 1163 q 101 1201 120 1163 q 84 1272 84 1233 q 104 1336 84 1295 q 144 1377 124 1377 q 213 1245 199 1377 m 1118 -228 q 964 -279 1051 -279 q 816 -231 899 -279 q 670 -132 773 -207 q 530 -42 579 -65 q 549 24 539 -9 q 559 88 563 72 l 480 517 q 287 373 375 512 q 207 135 207 247 q 212 69 207 113 q 216 3 216 25 q 134 -9 191 -9 q 45 3 88 -9 q 171 490 110 153 q 228 992 230 816 l 227 1088 l 198 1088 q 140 1057 156 1069 q 94 1008 124 1045 l 24 1008 l 25 1059 q 124 1134 64 1122 q 251 1138 142 1138 l 507 1138 q 487 1037 487 1073 q 502 1001 490 1000 q 543 657 502 797 q 620 782 620 705 q 615 828 620 797 q 610 874 610 859 q 661 907 610 907 q 705 873 689 907 q 716 814 716 846 q 675 691 716 745 q 596 615 655 666 q 554 558 554 579 q 609 330 554 524 q 679 95 659 149 q 769 -104 734 -53 q 944 -211 838 -211 q 1041 -166 977 -197 l 1118 -166 l 1118 -228 m 451 618 q 413 811 449 671 q 353 1001 377 947 q 296 727 339 941 q 251 462 248 479 q 451 618 308 503 z "},"Ö":{"ha":668,"x_min":24,"x_max":637,"o":"m 516 1177 q 459 1095 472 1095 q 404 1133 424 1095 q 388 1204 388 1163 q 406 1265 388 1227 q 447 1309 426 1309 q 516 1177 501 1309 m 225 1170 q 168 1088 181 1088 q 111 1126 131 1088 q 96 1197 96 1156 q 113 1258 96 1220 q 155 1302 134 1302 q 225 1170 209 1302 m 637 458 q 565 119 637 294 q 339 -97 477 -97 q 101 138 196 -97 q 24 494 24 326 q 95 841 24 668 q 331 1060 185 1060 q 567 821 477 1060 q 637 458 637 635 m 506 297 l 506 574 q 469 828 506 704 q 322 1001 418 1001 q 185 809 229 1001 q 155 539 155 681 q 184 213 155 362 q 339 -30 231 -30 q 463 102 412 -30 q 506 297 506 208 z "},"ä":{"ha":473,"x_min":16,"x_max":450,"o":"m 450 750 q 394 668 406 668 q 338 707 358 668 q 322 777 322 737 q 340 839 322 801 q 381 882 361 882 q 450 750 435 882 m 159 743 q 102 661 115 661 q 46 699 66 661 q 30 770 30 730 q 49 832 30 794 q 89 875 69 875 q 159 743 144 875 m 425 -10 l 296 -10 q 325 122 310 56 q 340 256 340 200 q 328 329 340 294 q 281 375 311 375 q 167 294 219 375 q 120 155 120 221 q 200 -38 120 24 q 380 -144 289 -90 l 258 -141 q 84 -34 140 -95 q 16 155 16 42 q 97 337 16 270 q 248 421 117 353 q 330 519 330 464 q 307 560 330 542 q 260 579 284 579 q 200 554 229 579 q 153 508 176 531 l 87 507 l 87 575 q 208 634 155 634 q 365 586 323 634 q 404 425 404 542 q 400 322 404 390 q 396 220 396 253 q 424 56 396 115 l 425 -10 z "},"ë":{"ha":473,"x_min":30,"x_max":457,"o":"m 457 750 q 400 668 413 668 q 344 706 363 668 q 329 777 329 737 q 346 839 329 801 q 388 882 367 882 q 457 750 442 882 m 164 743 q 108 661 120 661 q 52 699 72 661 q 36 770 36 730 q 56 834 36 793 q 95 875 75 875 q 164 743 149 875 m 369 481 q 332 409 369 409 q 280 414 315 409 q 226 419 244 419 q 106 369 106 419 q 138 197 106 270 q 267 96 179 96 q 308 99 281 96 q 347 102 334 102 l 352 80 q 206 -6 227 -6 q 111 118 188 -6 q 30 310 30 250 q 74 520 30 428 q 236 634 131 634 q 369 481 369 634 m 275 512 q 260 552 275 532 q 226 572 245 572 q 169 539 194 572 q 140 477 148 512 q 221 477 181 477 q 275 512 275 479 z "},"ö":{"ha":473,"x_min":13,"x_max":450,"o":"m 450 750 q 394 668 406 668 q 338 707 358 668 q 322 777 322 737 q 340 839 322 801 q 381 882 361 882 q 450 750 435 882 m 159 743 q 102 661 115 661 q 46 699 66 661 q 30 770 30 730 q 49 832 30 794 q 89 875 69 875 q 159 743 144 875 m 449 322 q 390 112 449 219 q 226 -12 322 -12 q 71 105 138 -12 q 13 303 13 207 q 78 509 13 398 q 236 635 149 635 q 390 519 323 635 q 449 322 449 416 m 325 211 l 325 444 q 304 524 325 483 q 247 574 280 574 q 148 463 172 574 q 137 292 137 407 q 226 42 137 42 q 300 108 269 42 q 325 211 325 162 z "},"ß":{"ha":840,"x_min":94,"x_max":806,"o":"m 274 856 l 274 1016 q 287 1104 286 1041 q 308 1181 289 1159 q 424 1213 337 1213 q 516 1179 477 1213 q 554 1093 554 1145 q 323 801 554 1009 q 561 718 453 801 q 670 525 670 635 q 671 429 670 492 q 672 338 672 367 q 630 81 672 157 q 407 -23 571 -23 l 407 -78 q 458 -64 448 -64 q 492 -53 485 -53 q 494 -56 495 -53 q 730 76 646 -54 q 806 368 806 193 q 792 508 806 440 q 688 721 762 653 q 475 845 639 767 q 606 939 541 892 q 677 1081 677 995 q 606 1226 677 1167 q 451 1281 539 1281 q 293 1249 396 1281 q 135 1218 190 1218 q 171 1063 154 1140 q 189 903 189 978 l 189 475 q 167 9 189 307 q 94 -444 137 -384 l 153 -443 q 226 -384 169 -434 q 303 -338 272 -343 q 274 45 285 -280 q 266 432 266 278 l 266 734 q 280 839 280 808 q 274 856 280 858 z "}," ":{"ha":579,"x_min":0,"x_max":0,"o":""},"Ë":{"ha":706,"x_min":47,"x_max":924,"o":"m 525 1355 q 469 1273 481 1273 q 413 1311 433 1273 q 397 1382 397 1343 q 416 1444 397 1406 q 456 1487 436 1487 q 525 1355 510 1487 m 234 1348 q 177 1266 190 1266 q 120 1304 140 1266 q 105 1375 105 1336 q 124 1439 105 1398 q 164 1480 144 1480 q 234 1348 219 1480 m 924 -204 q 778 -245 834 -245 q 385 -134 565 -245 q 205 -36 295 -84 q 49 66 47 51 q 112 473 112 191 l 112 777 q 93 979 112 846 q 50 1168 72 1132 l 49 1209 l 671 1209 l 670 1168 q 641 1078 655 1145 l 601 1078 q 535 1115 579 1098 q 462 1132 492 1132 l 219 1132 q 190 1020 194 1095 q 188 902 189 961 l 188 878 l 453 878 q 582 911 471 878 l 580 865 q 536 748 566 825 q 458 803 497 791 q 365 811 432 811 q 188 810 162 811 l 188 500 q 189 265 188 294 q 227 37 194 88 q 443 -90 324 -39 q 685 -148 578 -148 q 787 -130 733 -148 q 884 -95 836 -112 q 924 -204 898 -131 z "}}}
